<?xml version="1.0" encoding="UTF-8"?>
<svg id="Layer_2" data-name="Layer 2" xmlns="http://www.w3.org/2000/svg" viewBox="0 0 466.09 95.87">
  <g id="Layer_1-2" data-name="Layer 1">
    <g>
      <path d="M310.44,76.5h-.3c-2.6,0-8.6-.7-8.6-3.2v-20.3c0-14.2,18.6-34.9,31.2-41.4,3.9-2,7.7-2.6,9-2.6,2,0,1.2,1.6-.9,3.1-25.1,17.6-30.7,23.2-24.6,31.4l21.1,28.7c.5,.8,.8,1.5,.8,2,0,1.6-2.4,1.9-4.9,2.2v1.3h27.8v-1.3c-2.6-.3-8.4-.8-10.7-3.7l-22.8-31.1c-1.4-2.1-2-4.2-2-6.2,0-7.8,9.2-14.5,15.3-19.2,8-6.3,14.5-9.4,14.5-12.6,0-1.7-1.9-3.6-6.6-3.6-13,0-41.1,24.7-47.2,46.1V4.8c0-2.7,4.6-3.2,7-3.2h.9V.4h-25V1.6c2.5,.3,7,.5,7,3.2V73.3c0,2.7-4.5,2.9-7,3.2v1.2h26v-1.2Z"/>
      <path d="M377.72,76.7c-2.1-.3-6.5-.5-6.5-3.1V22.7h-15.6v1c2.5,.3,6.5,.6,6.5,3.1v46.8c0,2.6-4,2.8-6.5,3.1v1h22.1v-1Z"/>
      <path d="M404.39,76.7c-2.1-.2-6.5-.6-6.5-3.1v-18.3c.9-6.5,7.8-28.2,16.7-28.2,5.7,0,5,8.8,5,21.6v24.9c0,2.5-4,2.9-6.4,3.1v1h22v-1c-2.1-.2-6.4-.6-6.4-3.1v-18.3c.9-6.5,7.8-28.2,16.7-28.2,5.7,0,5,8.8,5,21.6v24.9c0,2.5-4,2.9-6.5,3.1v1h22.1v-1c-2.1-.2-6.5-.6-6.5-3.1v-24.8c0-14.6,.5-26.8-11.1-26.8-10.3,0-17.6,17.2-19.7,28v-1.2c0-14.6,.5-26.8-11.2-26.8-10.3,0-17.6,17.2-19.7,28V22.7h-15.6v1c2.5,.3,6.5,.5,6.5,3v46.9c0,2.5-4,2.9-6.5,3.1v1h22.1v-1Z"/>
      <path d="M254.78,26.8l-23.6,57.6c-1.57,3.63-3.2,7.62-4.94,11.47h1.69c1.54-3.6,3.1-7.48,4.75-11.47l23.6-57.6c1.1-2.8,4.5-2.8,7.1-3.1v-1h-14.5v1c1.6,.2,7.1,.2,5.9,3.1Z"/>
      <circle cx="366.52" cy="7.4" r="6"/>
      <path d="M217.26,27.2c4.3,6.6,6.9,10.7,11.2,17.6,5.6,8.9,14.4,17,15.3,22.5,1.98,11.51-38.59,11.02-45.42,28.57h20.84c5.19-12.11,23.27-17.43,26.19-26.37,1.7-5.4-.2-13.8-5-21.6-4.3-6.9-8.4-14-12.5-21-1.8-3,4.5-3,6-3.2v-1h-23.9v1c2.9,.3,5.5,.7,7.3,3.5Z"/>
      <path d="M179.73,76.7c-2.1-.2-6.5-.6-6.5-3.1v-17.2c.4-7.8,9.8-29.2,20-29.2,6.6,0,7.6,8.7,7.6,21.5v24.9c0,2.5-4,2.9-6.5,3.1v1h22.1v-1c-2.1-.2-6.5-.6-6.5-3.1v-24.8c0-14.6,.4-26.8-13.7-26.8-10.2,0-20.9,17.6-23,28.4V22.7h-15.6v1c2.5,.3,6.5,.5,6.5,3v46.9c0,2.5-4,2.9-6.5,3.1v1h22.1v-1Z"/>
      <path d="M35.88,4.5v62.9c0,6.58-29.34,16.53-35.88,28.47H16.97c4.63-8.32,16.56-18.89,18.91-24.37v4.7c0,6.56-.45,13.61-1.89,19.67h8.99c2.19-5.86,3.3-12.62,2.99-19.67V4.5c0-2.6,4.5-2.6,7-2.9V.4H28.88V1.6c2.2,.3,7,.3,7,2.9Z"/>
      <path d="M76.37,78.3c13.5,0,22.5-9.4,26.9-20l-1.1-.4c-4.6,9.5-12.6,17.4-24.1,16.2-10.4-1.1-15.8-12.3-15.8-12.3,.4-7.3,3.6-18.4,18.4-18.4l4,.1c9.2,0,11.6-3.7,11.6-7.2,0-9.5-11.2-14.8-19.4-14.8-15.3,0-26.7,13.3-26.7,27.9,0,13.7,11.5,28.9,26.2,28.9Zm-1.9-55.5c8.4,0,13.4,8.1,13.4,15.7,0,2.9-3.4,2.9-5.8,2.9-15.2,0-19.8,9.9-20.7,17.8-1.2-4.1-1.9-8-1.9-12.7,0-9.3,2.9-23.7,15-23.7Z"/>
      <path d="M101.12,26.7v46.9c0,2.5-4,2.9-6.5,3.1v1h22.1v-1c-2.1-.2-6.5-.6-6.5-3.1v-17.2c.4-7.8,9.8-29.2,20-29.2,6.6,0,7.6,8.7,7.6,21.5v24.9c0,2.5-4,2.9-6.5,3.1v1h22.1v-1c-2.1-.2-6.5-.6-6.5-3.1v-24.8c0-14.6,.4-26.8-13.7-26.8-10.2,0-20.9,17.6-23,28.4V22.7h-15.6v1c2.5,.3,6.5,.5,6.5,3Z"/>
    </g>
  </g>
</svg>