<svg width="12" height="30" viewBox="0 0 12 30" fill="none" xmlns="http://www.w3.org/2000/svg">
<path d="M3.23389 29.425C0.683886 29.425 0.733887 26.675 1.85889 24.575C3.48389 21.575 7.25889 19.075 7.25889 17.425L7.25889 1.7C7.25889 1.05 6.05889 1.05 5.50889 0.974999V0.674998L11.5339 0.674998V0.974999C10.9089 1.05 9.78389 1.05 9.78389 1.7V19.625C10.0089 24.85 7.15889 29.425 3.23389 29.425ZM2.45889 24.675C1.55889 26.4 1.40889 28.425 3.23389 28.425C6.58389 28.425 7.25889 23.65 7.25889 19.625V18.45C6.65889 19.85 3.55889 22.575 2.45889 24.675Z" fill="black"/>
</svg>
